<?xml version="1.0" encoding="UTF-8" standalone="no"?>
<!-- Created with Inkscape (http://www.inkscape.org/) -->

<svg
   width="500"
   height="500"
   viewBox="0 0 132.29166 132.29167"
   version="1.1"
   id="svg1"
   xml:space="preserve"
   inkscape:version="1.4 (86a8ad7, 2024-10-11)"
   sodipodi:docname="hajo.svg"
   xmlns:inkscape="http://www.inkscape.org/namespaces/inkscape"
   xmlns:sodipodi="http://sodipodi.sourceforge.net/DTD/sodipodi-0.dtd"
   xmlns="http://www.w3.org/2000/svg"
   xmlns:svg="http://www.w3.org/2000/svg"><sodipodi:namedview
     id="namedview1"
     pagecolor="#ffffff"
     bordercolor="#000000"
     borderopacity="0.25"
     inkscape:showpageshadow="2"
     inkscape:pageopacity="0.0"
     inkscape:pagecheckerboard="0"
     inkscape:deskcolor="#d1d1d1"
     inkscape:document-units="mm"
     inkscape:zoom="0.73851712"
     inkscape:cx="397.41801"
     inkscape:cy="344.60948"
     inkscape:window-width="1920"
     inkscape:window-height="1009"
     inkscape:window-x="-8"
     inkscape:window-y="-8"
     inkscape:window-maximized="1"
     inkscape:current-layer="layer1" /><defs
     id="defs1" /><g
     inkscape:label="Réteg 1"
     inkscape:groupmode="layer"
     id="layer1"><path
       style="fill:#073353;fill-opacity:1;stroke-width:0.768243"
       d="m 60.540814,121.41938 c -1.920591,-0.24605 -3.371747,-0.72868 -6.307763,-2.09787 -3.034383,-1.41504 -3.832917,-1.60356 -6.260525,-1.47793 -2.01948,0.10452 -3.272752,0.48798 -6.05565,1.85285 -1.809726,0.88758 -3.298311,1.23164 -5.367811,1.24066 -3.118689,0.0136 -4.597479,-0.93293 -4.55312,-2.91432 0.02981,-1.33073 0.699554,-1.85323 2.379362,-1.85617 1.646167,-0.003 2.672401,-0.33157 6.018451,-1.92769 3.7442,-1.78604 6.167283,-2.41481 8.677201,-2.25165 2.185688,0.14208 3.596789,0.59058 7.368577,2.34201 5.156951,2.39462 7.662813,2.40718 12.326898,0.0618 3.147152,-1.58258 5.001605,-2.1189 7.724042,-2.23385 2.991821,-0.12632 4.179908,0.17768 8.173402,2.0914 2.452983,1.17549 3.232995,1.42029 5.795169,1.81878 0.987906,0.15365 1.377874,0.73082 1.377874,2.03932 0,1.83148 -1.151519,2.53542 -4.14092,2.53143 -1.691009,-0.002 -1.99942,-0.0673 -3.481483,-0.73446 -0.894365,-0.40259 -2.495068,-1.04616 -3.557125,-1.43017 -1.776207,-0.64221 -2.077666,-0.69165 -3.760386,-0.61677 -1.939759,0.0863 -2.832365,0.33629 -5.344341,1.49659 -0.860363,0.39741 -2.013403,0.89959 -2.56232,1.11595 -2.228019,0.8782 -5.840234,1.28437 -8.449532,0.9501 z m -32.833745,-9.61547 c -1.884038,-0.37199 -3.541307,-0.96671 -5.169889,-1.85526 -1.685294,-0.9195 -2.403209,-1.58228 -2.894976,-2.67265 -0.38406,-0.85154 -0.384045,-0.87647 7.68e-4,-1.74648 0.440287,-0.99535 1.368916,-1.75983 2.137681,-1.75983 0.28342,0 1.321193,0.41061 2.306165,0.91245 2.115102,1.07766 4.497,1.72999 6.316905,1.72999 2.203589,0 3.942483,-0.5533 7.559154,-2.40522 4.056483,-2.07712 5.511165,-2.59067 8.2353,-2.90733 2.026962,-0.23562 2.707272,-0.19306 5.2447,0.3281 0.867884,0.17824 2.370498,0.80687 4.58485,1.91808 2.737271,1.37363 4.18282,1.82824 6.288673,1.97771 2.444194,0.1735 4.162791,-0.24877 7.567958,-1.85948 3.637029,-1.72038 4.719568,-1.99056 8.232203,-2.05461 l 2.845694,-0.0519 1.359958,-1.588793 c 1.627937,-1.90184 3.55217,-5.02095 4.53257,-7.34709 0.392456,-0.93116 0.713559,-1.77289 0.713559,-1.8705 0,-0.10031 -13.794111,-0.1837 -31.724379,-0.1918 l -31.724372,-0.0143 0.140673,0.46197 c 0.315609,1.03643 1.530616,3.4627 2.431096,4.8547 1.985308,3.06897 5.094032,5.719943 7.723396,6.586153 0.317922,0.10473 -0.03649,0.35144 -1.626108,1.13191 -1.80872,0.88805 -2.180296,0.99808 -3.372908,0.99887 -1.237846,7.7e-4 -1.43752,-0.0645 -2.612862,-0.85364 -3.137042,-2.10648 -5.649042,-5.648913 -9.020528,-12.720793 -1.561062,-3.27442 -1.770654,-4.06139 -1.280799,-4.80901 0.700414,-1.06896 -0.146143,-1.02945 20.352376,-0.95015 l 19.10684,0.0739 -0.06023,-3.24903 -0.06023,-3.24903 -1.239959,-0.1296 c -0.681976,-0.0713 -7.791947,-0.12961 -15.799939,-0.12961 -16.037065,0 -15.098995,0.0749 -15.789322,-1.26007 -0.18709,-0.3618 -0.276414,-0.86108 -0.211828,-1.18404 0.06146,-0.30713 1.063978,-2.1467 2.227889,-4.08794 1.163918,-1.94124 4.858274,-8.148703 8.209678,-13.794364 3.351413,-5.645661 8.086346,-13.603454 10.522066,-17.683983 2.435721,-4.080529 5.16097,-8.653972 6.056118,-10.163209 0.895141,-1.509237 2.596599,-4.116099 3.781015,-5.793029 l 2.153476,-3.048962 0.105664,-4.481864 c 0.117772,-4.995595 0.178601,-5.230412 1.51973,-5.866822 0.708258,-0.336088 0.756719,-0.333273 1.430383,0.08308 1.887211,1.166358 10.910828,11.182325 14.833859,16.465168 8.978536,12.090708 15.742089,27.702219 18.477632,42.649755 0.272603,1.48957 0.542627,2.7553 0.600037,2.81272 0.16757,0.16757 12.942114,0.3498 12.942114,0.18461 0,-0.0824 -1.31416,-1.541 -2.92035,-3.24136 -1.60619,-1.700376 -3.083674,-3.407413 -3.283284,-3.793416 -1.19988,-2.320316 1.036774,-4.751366 3.398724,-3.694118 0.63001,0.281999 2.47648,2.014778 6.6163,6.2089 5.75009,5.825524 6.55291,6.756494 6.55433,7.600594 0.002,0.76957 -0.59637,1.50962 -4.47615,5.54267 -9.03753,9.39451 -8.67047,9.0852 -10.35285,8.72439 -1.345564,-0.28857 -2.173524,-1.09888 -2.354254,-2.30405 -0.0734,-0.48998 -0.0773,-1.06832 -0.008,-1.2852 0.0688,-0.21688 1.302834,-1.597 2.742204,-3.06693 3.32905,-3.39972 4.75906,-5.05151 4.50774,-5.20684 -0.10917,-0.0675 -10.417044,-0.18122 -22.90638,-0.25278 l -22.707892,-0.13011 0.134458,1.89421 c 0.07398,1.04182 0.13445,2.56618 0.13445,3.38747 v 1.49325 h 16.941056 c 16.154074,0 16.956684,0.0173 17.277464,0.37172 0.46479,0.51359 0.43661,0.74482 -0.39402,3.23318 -0.85171,2.55148 -2.01338,5.34376 -3.235845,7.7779 -0.913456,1.81884 -3.387689,5.665413 -4.162085,6.470583 -0.284142,0.29543 -0.384237,0.54622 -0.265428,0.66503 0.104911,0.1049 1.007404,0.47369 2.005536,0.81952 3.362214,1.16493 5.759892,1.01835 9.255382,-0.56583 1.07385,-0.48667 2.153164,-0.88486 2.398454,-0.88486 1.20525,0 2.25601,1.24594 2.25442,2.67315 -0.002,1.49102 -1.34976,2.69746 -4.259074,3.81156 -2.00033,0.76601 -3.5974,1.08365 -5.59849,1.11346 -3.337487,0.0497 -4.708062,-0.26745 -9.350144,-2.16385 -2.877791,-1.17563 -4.081888,-1.44855 -5.764816,-1.3066 -2.18459,0.18426 -3.717964,0.65594 -6.230432,1.91651 -1.689289,0.84755 -4.124288,1.65591 -5.526116,1.83451 -0.648419,0.0826 -2.276571,0.14595 -3.618115,0.14073 -2.930239,-0.0114 -4.242474,-0.35644 -8.028934,-2.11133 -3.741519,-1.73405 -4.47261,-1.94734 -6.606089,-1.92731 -2.304197,0.0217 -4.168799,0.60495 -7.654761,2.39463 -2.334252,1.1984 -4.298694,1.96652 -5.760675,2.25248 -0.335384,0.0656 -0.83846,0.17014 -1.117947,0.23231 -1.168474,0.2599 -4.243842,0.25276 -5.589772,-0.013 z M 48.774801,72.670267 c 0.883664,-1.18672 2.801082,-7.134859 4.029686,-12.50075 0.332773,-1.453338 0.693701,-3.013209 0.802077,-3.466387 0.270836,-1.132544 1.165524,-7.450326 1.423308,-10.05068 0.295451,-2.980249 0.380149,-4.301778 0.514561,-8.028935 0.06453,-1.788725 0.163605,-4.349853 0.220225,-5.691397 l 0.102929,-2.43917 -0.697895,1.106902 c -0.383837,0.608797 -0.874452,1.172218 -1.090251,1.252047 -0.284819,0.105362 -0.529504,0.637651 -0.892729,1.94206 -0.440596,1.582279 -0.970045,2.573859 -4.432446,8.30137 -2.162649,3.57745 -4.341101,7.236206 -4.841019,8.130571 -0.499919,0.894357 -1.068518,1.854783 -1.26356,2.13427 -0.195033,0.279487 -2.159284,3.516208 -4.364985,7.192702 -2.205709,3.676494 -4.870597,7.918885 -5.921975,9.427517 -1.051371,1.50864 -1.911588,2.82044 -1.911588,2.91511 0,0.19151 4.72301,0.29931 12.682211,0.28945 l 5.263061,-0.006 z m 37.777256,0.23974 c 0,-0.58608 -0.74647,-3.9261 -1.643563,-7.353988 C 82.089021,54.782508 77.395765,43.940356 71.754398,35.168024 70.169837,32.704029 66.431092,27.706107 64.303759,25.20808 c -0.856852,-1.006158 -1.941188,-2.352891 -2.409632,-2.99274 -0.468451,-0.639848 -0.916651,-1.165795 -0.995995,-1.168769 -0.177357,-0.0067 -0.141534,-3.3522 -0.284504,26.569209 l -0.121636,25.456667 8.812296,0.0552 c 4.846766,0.0303 10.710278,0.0771 13.030033,0.1038 3.961435,0.0456 4.217736,0.0261 4.217736,-0.32145 z"
       id="path1"
       sodipodi:nodetypes="cssssscsssssssscssssscccsscsssssssssscsssccssssccssscccssscssssscssssssssssscsssssssccscssssssssscsssssssssssscccssscscssssssssscccssssscsccsss" /></g></svg>
